<svg width="61.712067" height="67.524414" viewBox="0 0 61.7121 67.5244" fill="none" xmlns="http://www.w3.org/2000/svg" xmlns:xlink="http://www.w3.org/1999/xlink">
	<desc>
			Created with Pixso.
	</desc>
	<defs/>
	<path id="Vector" d="M36.89 13.24L13.99 13.24C12.94 13.24 12.08 14.18 12.08 15.33C12.08 16.48 12.94 17.42 13.99 17.42L36.89 17.42C37.95 17.42 38.8 16.48 38.8 15.33C38.8 14.18 37.95 13.24 36.89 13.24Z" fill="#2352DE" fill-opacity="1.000000" fill-rule="nonzero"/>
	<path id="Vector" d="M29.26 21.59L13.99 21.59C12.94 21.59 12.08 22.53 12.08 23.68C12.08 24.83 12.94 25.77 13.99 25.77L29.26 25.77C30.31 25.77 31.17 24.83 31.17 23.68C31.17 22.53 30.31 21.59 29.26 21.59Z" fill="#2352DE" fill-opacity="1.000000" fill-rule="nonzero"/>
	<path id="Vector" d="M43.26 1.23L8.91 0.22C4.7 0.1 1.19 3.74 1.08 8.34L0.05 50.08C0.03 50.89 0.44 51.64 1.1 52C1.35 52.14 1.63 52.21 1.9 52.22C2.34 52.23 2.78 52.08 3.14 51.77L14.3 42.15L42.23 42.97C46.44 43.09 49.95 39.45 50.07 34.85L50.68 9.81C50.8 5.2 47.47 1.36 43.26 1.23ZM46.25 34.73C46.19 37.03 44.44 38.86 42.33 38.8L13.71 37.95C13.26 37.94 12.83 38.1 12.48 38.4L3.97 45.74L4.89 8.45C4.95 6.16 6.7 4.33 8.81 4.39L43.15 5.41C45.26 5.47 46.92 7.39 46.87 9.69L46.25 34.73Z" fill="#2352DE" fill-opacity="1.000000" fill-rule="nonzero"/>
	<path id="Vector" d="M54.07 17.42C53.02 17.42 52.16 18.35 52.16 19.51C52.16 20.66 53.02 21.59 54.07 21.59C56.18 21.59 57.89 23.47 57.89 25.77L57.89 61.09L51.45 55.45C51.11 55.16 50.69 54.99 50.26 54.99L23.53 54.99C21.43 54.99 19.72 53.12 19.72 50.82L19.72 48.73C19.72 47.58 18.86 46.64 17.81 46.64C16.75 46.64 15.9 47.58 15.9 48.73L15.9 50.82C15.9 55.42 19.32 59.17 23.53 59.17L49.58 59.17L58.6 67.06C58.95 67.36 59.37 67.52 59.8 67.52C60.08 67.52 60.36 67.45 60.63 67.31C61.29 66.96 61.71 66.23 61.71 65.43L61.71 25.77C61.71 21.16 58.28 17.42 54.07 17.42Z" fill="#2352DE" fill-opacity="1.000000" fill-rule="nonzero"/>
</svg>
