<svg width="61.077820" height="66.802490" viewBox="0 0 61.0778 66.8025" fill="none" xmlns="http://www.w3.org/2000/svg" xmlns:xlink="http://www.w3.org/1999/xlink">
	<desc>
			Created with Pixso.
	</desc>
	<defs/>
	<path d="M37.91 0.9L35.89 0.07C35.63 -0.06 35.37 -0.02 35.12 0.19C34.87 0.4 34.7 0.72 34.61 1.14L22.44 63.95C22.35 64.37 22.38 64.77 22.52 65.14C22.66 65.51 22.87 65.77 23.16 65.9L25.18 66.72C25.44 66.85 25.7 66.81 25.95 66.6C26.2 66.39 26.37 66.07 26.45 65.65L38.63 2.84C38.71 2.42 38.69 2.02 38.55 1.65C38.4 1.28 38.19 1.03 37.91 0.9Z" fill="#2352DE" fill-opacity="1.000000" fill-rule="nonzero"/>
	<path d="M19.34 11.96C19.34 11.52 19.23 11.14 19 10.8L17.34 8.29C17.12 7.96 16.87 7.79 16.58 7.79C16.29 7.79 16.03 7.96 15.81 8.29L0.33 31.69C0.11 32.02 0 32.4 0 32.84C0 33.28 0.11 33.66 0.33 33.99L15.81 57.39C16.03 57.72 16.29 57.89 16.58 57.89C16.87 57.89 17.12 57.72 17.34 57.39L19 54.88C19.23 54.55 19.34 54.16 19.34 53.72C19.34 53.29 19.23 52.9 19 52.57L5.94 32.84L19 13.11C19.23 12.78 19.34 12.39 19.34 11.96Z" fill="#2352DE" fill-opacity="1.000000" fill-rule="nonzero"/>
	<path d="M60.74 31.68L45.25 8.29C45.03 7.96 44.78 7.79 44.49 7.79C44.2 7.79 43.95 7.96 43.72 8.29L42.06 10.8C41.84 11.14 41.73 11.52 41.73 11.96C41.73 12.39 41.84 12.78 42.06 13.11L55.12 32.84L42.06 52.57C41.84 52.9 41.73 53.29 41.73 53.72C41.73 54.16 41.84 54.55 42.06 54.88L43.72 57.39C43.95 57.72 44.2 57.89 44.49 57.89C44.78 57.89 45.03 57.72 45.25 57.39L60.74 34C60.96 33.66 61.07 33.27 61.07 32.84C61.07 32.4 60.96 32.02 60.74 31.68Z" fill="#2352DE" fill-opacity="1.000000" fill-rule="nonzero"/>
</svg>
