<svg width="158.666626" height="52.310059" viewBox="0 0 158.667 52.3101" fill="none" xmlns="http://www.w3.org/2000/svg" xmlns:xlink="http://www.w3.org/1999/xlink">
	<desc>
			Created with Pixso.
	</desc>
	<defs/>
	<path d="M0 26.15L0 52.3L22.94 52.3C35.57 52.3 71.2 52.31 102.14 52.3L158.39 52.3L158.52 26.15L158.66 0L79.33 0L0 0L0 26.15ZM45.63 26.42L45.63 50.68L23.61 50.68L1.59 50.68L1.59 26.42L1.59 2.15L23.61 2.15L45.63 2.15L45.63 26.42ZM10.05 11.88C9 12.95 8.97 13.48 9.12 27.57L9.28 42.15L10.53 43.18C11.69 44.13 12.78 44.21 24.42 44.21C38.04 44.21 38.74 44.07 38.72 41.34C38.7 38.63 38.45 38.57 26.68 38.28L15.65 38.01L15.51 25.37C15.38 14.56 15.24 12.59 14.49 11.75C13.34 10.46 11.39 10.52 10.05 11.88ZM62.29 17.56C62.46 18.03 62.61 21.43 62.61 25.11L62.61 31.81L68.73 31.81C73.7 31.81 74.9 31.96 75.15 32.62C75.32 33.07 75.17 33.8 74.81 34.24C73.83 35.44 60.92 35.4 59.73 34.2C59.05 33.5 58.89 31.91 58.89 25.39C58.89 21.01 59.05 17.27 59.25 17.07C59.92 16.38 61.97 16.71 62.29 17.56ZM93.53 17.45C100.68 20.56 100.68 31.19 93.53 34.3C90.8 35.49 85.54 35.24 83.05 33.81C79.9 32 78.53 29.59 78.53 25.88C78.53 22.03 79.96 19.63 83.29 17.92C86.05 16.51 90.85 16.29 93.53 17.45ZM118.28 17.65C120.76 18.94 121.48 20.21 120.37 21.33C119.59 22.12 119.34 22.1 117.35 21.07C112.18 18.39 106.12 20.98 106.12 25.88C106.12 27.74 107.62 30.12 109.4 31.05C111.82 32.32 116.57 31.86 117.88 30.21C119.64 28 119.19 27.56 115.01 27.38C111.3 27.23 111.16 27.18 111.16 25.88C111.16 24.55 111.25 24.53 115.75 24.37C121.11 24.19 122.04 24.73 122.04 28.03C122.04 32.11 118.18 35.04 112.8 35.04C109.2 35.04 107.4 34.37 105.18 32.2C100.79 27.89 102.28 19.98 107.97 17.46C110.34 16.41 116.1 16.52 118.28 17.65ZM141.69 17.95C144.4 19.41 146.45 22.82 146.45 25.88C146.45 28.94 144.4 32.35 141.69 33.8C137.05 36.29 129.89 34.96 127.11 31.09C126.26 29.91 126.02 28.75 126.02 25.88C126.02 23 126.26 21.84 127.11 20.66C129.89 16.79 137.05 15.46 141.69 17.95ZM84.53 21C82.44 22.29 81.56 25 82.32 27.79C83.78 33.17 93.22 33.18 94.96 27.81C95.82 25.15 94.88 22.36 92.67 20.98C90.47 19.62 86.73 19.63 84.53 21ZM132.12 20.83C129.98 22.37 129.5 23.3 129.48 25.94C129.47 27.92 129.75 28.71 130.88 29.86C132.59 31.6 134.09 32.03 137.25 31.66C140.77 31.26 142.47 29.38 142.47 25.88C142.47 22.05 140.74 20.36 136.52 20.08C134.19 19.92 133.13 20.1 132.12 20.83Z" fill="#FFFFFF" fill-opacity="1.000000" fill-rule="evenodd"/>
</svg>
